<svg width="111" height="83" viewBox="0 0 111 83" fill="none" xmlns="http://www.w3.org/2000/svg">
<path d="M109.149 26.6468C109.149 26.6468 110.144 25.6482 109.975 24.3979C109.78 22.9446 108.165 22.13 106.359 23.4723C103.939 25.272 107.156 27.0013 107.156 27.0013C107.156 27.0013 94.6455 28.2625 91.308 27.843C91.6272 23.6509 90.9619 19.3371 86.1273 17.551L87.1388 8.12493C87.1388 8.12493 92.3006 13.3318 93.9667 12.4361C95.6354 11.543 89.7438 2.60409 85.6793 3.23465C82.0842 3.79215 82.5242 13.2209 82.4571 16.7824C81.8347 16.7282 81.1747 16.6958 80.4664 16.6958C80.3108 16.6958 80.1552 16.7012 80.0023 16.712C79.6911 13.8352 77.8023 -1.58526 73.169 0.133241C68.1413 1.99517 72.1522 12.7121 77.0994 17.5645C69.743 21.5265 67.331 37.7291 67.331 37.7291C67.331 37.7291 37.7201 40.5896 25.7812 46.3676L24.2359 47.0225C17.3248 41.2825 6.62813 19.3506 1.75333 22.425C-7.27993 28.119 21.5315 48.2945 21.5315 48.2945C20.8447 48.6896 20.2572 49.0928 19.7904 49.5042C13.7431 54.8139 10.8242 60.9139 9.57394 63.9125C8.32371 66.9111 0.661401 83 3.78696 83C6.91252 83 17.5475 64.8597 18.956 64.3861C20.3645 63.9125 25.0542 64.0695 25.0542 64.0695C25.0542 64.0695 23.3344 81.5792 25.0542 81.7362C26.7739 81.8931 31.1524 64.5404 31.1524 64.5404C31.1524 64.5404 34.2806 64.3834 43.6626 64.2237C53.0447 64.0668 73.6868 59.964 73.6868 59.964C73.6868 59.964 69.9334 82.9946 71.9671 82.9946C73.7619 82.9946 81.0406 63.6933 82.7227 59.1711L90.5487 62.7515C90.5487 62.7515 85.8858 73.0571 87.6056 74.0016C89.3253 74.9488 95.4235 63.5904 94.4872 60.4349C93.5482 57.2794 86.511 51.4446 86.511 51.4446C86.1944 51.1631 85.9019 50.9033 85.6363 50.6625C87.01 46.7059 88.5419 42.457 89.1697 41.3501C90.4199 39.1418 92.5072 39.6668 100.376 38.3515C108.248 37.0363 111.247 32.422 110.984 28.6116C110.888 27.2016 109.149 26.6468 109.149 26.6468Z" fill="#CC4217"/>
</svg>
