<svg width="125" height="33" viewBox="0 0 125 33" fill="none" xmlns="http://www.w3.org/2000/svg">
<path d="M49.104 7.7002H44.1836V25.3343H49.104V7.7002Z" fill="white"/>
<path d="M18.3064 15.0168C18.3064 9.49991 14.3224 7.2998 9.31694 7.2998C4.31145 7.2998 0.395581 9.81659 0.395581 9.81659L1.85977 13.7168C1.85977 13.7168 5.87779 10.85 10.4577 11.4667C12.6199 11.75 13.1307 13.3001 13.2669 14.0168C13.2669 14.0168 7.35901 14.7668 4.12416 16.4836C0.838244 18.217 -0.813229 20.3671 0.395581 23.0505C1.2128 24.8506 4.07309 26.1673 7.54629 25.4006C9.87878 24.8839 11.9218 23.4006 13.4031 20.9004V25.334H18.3234C18.3234 25.334 18.3064 16.6669 18.3064 15.0168ZM11.3941 20.0837C9.96391 21.3671 8.29541 21.7838 7.10363 21.7338C5.91184 21.6838 4.83924 20.8504 5.29892 19.8004C5.75861 18.7503 7.37603 18.0836 8.95941 17.6003C10.4917 17.1336 13.2498 16.6669 13.4031 16.6502C13.4031 16.6669 13.4031 16.6836 13.4031 16.7002C13.2669 17.3169 12.7901 18.8337 11.3941 20.0837Z" fill="white"/>
<path d="M101.306 15.0168C101.306 9.49991 97.3224 7.2998 92.3169 7.2998C87.3114 7.2998 83.3956 9.81659 83.3956 9.81659L84.8598 13.7168C84.8598 13.7168 88.8778 10.85 93.4576 11.4667C95.6199 11.75 96.1306 13.3001 96.2668 14.0168C96.2668 14.0168 90.359 14.7668 87.1242 16.4836C83.8382 18.217 82.1868 20.3671 83.3956 23.0505C84.2128 24.8506 87.0731 26.1673 90.5463 25.4006C92.8788 24.8839 94.9218 23.4006 96.403 20.9004V25.334H101.323C101.323 25.334 101.306 16.6669 101.306 15.0168ZM94.4111 20.0837C92.9809 21.3671 91.3124 21.7838 90.1206 21.7338C88.9289 21.6838 87.8563 20.8504 88.3159 19.8004C88.7756 18.7503 90.393 18.0836 91.9764 17.6003C93.5087 17.1336 96.2668 16.6669 96.4201 16.6502C96.4201 16.6669 96.4201 16.6836 96.4201 16.7002C96.2668 17.3169 95.7901 18.8337 94.4111 20.0837Z" fill="white"/>
<path d="M41.0179 15.6677C41.0179 14.2843 40.7625 10.5174 38.1406 8.61735C35.5187 6.71726 29.3214 5.76722 26.393 13.2009V7.70064H21.4727V25.3348H26.393V20.8012C26.393 19.1678 26.5463 11.9175 32.2668 11.9175C35.706 11.9675 36.1316 14.6676 36.1316 18.0178V25.3348H41.0349C41.0349 25.3348 41.0179 17.0511 41.0179 15.6677Z" fill="white"/>
<path d="M46.6344 5.70026C48.4021 5.70026 49.8352 4.42422 49.8352 2.85013C49.8352 1.27605 48.4021 0 46.6344 0C44.8666 0 43.4336 1.27605 43.4336 2.85013C43.4336 4.42422 44.8666 5.70026 46.6344 5.70026Z" fill="white"/>
<path d="M76.906 7.7002L72.5986 18.5007L68.3933 7.7002H64.6817L60.4934 18.5007L56.186 7.7002H51.2656L58.2971 25.3343H62.2981L66.5375 14.4338L70.7939 25.3343H74.7948L81.8264 7.7002H76.906Z" fill="white"/>
<path d="M119.116 7.70026L113.038 20.1675L106.959 7.70026H102.039L110.569 24.9344L110.16 25.7178C109.871 26.2345 109.445 26.9011 108.951 27.3678C108.032 28.2345 105.887 28.3179 103.044 27.4178L102.346 31.718C102.346 31.718 104.559 32.2347 106.738 32.2514C108.917 32.2681 111.863 31.6347 113.821 28.1512L124.002 7.68359H119.116V7.70026Z" fill="white"/>
</svg>
