<svg width="51" height="37" viewBox="0 0 51 37" fill="none" xmlns="http://www.w3.org/2000/svg">
<path d="M0.850403 11.8787C0.850403 11.8787 0.393078 11.4335 0.470737 10.8762C0.560722 10.2283 1.3028 9.86518 2.13239 10.4636C3.24426 11.2658 1.76628 12.0367 1.76628 12.0367C1.76628 12.0367 7.51425 12.5989 9.0477 12.4119C8.90101 10.5432 9.20671 8.62016 11.428 7.82392L10.9633 3.62196C10.9633 3.62196 8.59161 5.94311 7.82611 5.54378C7.05939 5.14567 9.76635 1.16086 11.6339 1.44195C13.2856 1.69048 13.0835 5.89365 13.1143 7.4813C13.4003 7.45717 13.7035 7.44269 14.0289 7.44269C14.1004 7.44269 14.1719 7.4451 14.2422 7.44993C14.3852 6.1675 15.253 -0.706681 17.3818 0.0593965C19.6919 0.889414 17.849 5.66684 15.5759 7.82995C18.9559 9.59615 20.0641 16.819 20.0641 16.819C20.0641 16.819 33.6692 18.0942 39.1546 20.6699L39.8646 20.9618C43.04 18.403 47.9546 8.62619 50.1944 9.99668C54.3448 12.535 41.1071 21.5289 41.1071 21.5289C41.4227 21.705 41.6926 21.8848 41.9071 22.0681C44.6856 24.4351 46.0267 27.1544 46.6012 28.4911C47.1756 29.8278 50.6961 37 49.26 37C47.824 37 42.9377 28.9134 42.2905 28.7022C41.6433 28.4911 39.4886 28.5611 39.4886 28.5611C39.4886 28.5611 40.2788 36.3666 39.4886 36.4366C38.6985 36.5066 36.6868 28.771 36.6868 28.771C36.6868 28.771 35.2495 28.701 30.9388 28.6299C26.6281 28.5599 17.1439 26.7309 17.1439 26.7309C17.1439 26.7309 18.8684 36.9976 17.9341 36.9976C17.1094 36.9976 13.7651 28.3934 12.9923 26.3775L9.39654 27.9736C9.39654 27.9736 11.5389 32.5676 10.7488 32.9887C9.95864 33.4109 7.15677 28.3475 7.58698 26.9409C8.01841 25.5342 11.2517 22.9331 11.2517 22.9331C11.3972 22.8077 11.5315 22.6918 11.6536 22.5845C11.0224 20.8207 10.3186 18.9266 10.0301 18.4332C9.45571 17.4487 8.49669 17.6828 4.88125 17.0965C1.26458 16.5101 -0.113548 14.4532 0.00725174 12.7546C0.0516281 12.126 0.850403 11.8787 0.850403 11.8787Z" fill="#CBAC89"/>
</svg>
