<svg width="55" height="37" viewBox="0 0 55 37" fill="none" xmlns="http://www.w3.org/2000/svg">
<path d="M0.00648499 8.80832C0.187424 8.33468 3.36448 9.35831 4.23724 9.64948C4.23724 9.64301 4.23857 9.63654 4.23857 9.62878C3.2953 9.21725 -0.336765 7.59186 0.0317612 7.11305C0.335098 6.71964 2.87355 8.10433 4.29843 8.92737C4.38757 8.10691 4.52726 7.40551 4.65765 6.85552C5.26698 4.28802 7.36373 -0.252973 8.24447 0.0110232C9.12388 0.273726 8.51455 3.82862 8.98817 5.4553C10.0033 5.50318 14.1303 6.92152 14.1303 6.92152C14.1303 6.92152 17.4457 2.05053 17.9872 2.90722C18.6298 6.22529 17.8275 8.70091 17.2168 10.9229C18.4023 10.787 21.0485 10.6058 21.2746 11.0083C21.4702 11.3577 18.6923 11.711 16.9747 11.852C16.9574 11.9232 16.9747 11.852 16.9574 11.9232C18.5353 12.0798 20.9939 12.4512 20.8981 12.7954C20.813 13.1008 18.5686 12.8511 16.8111 12.6078C16.7672 12.842 16.7299 13.075 16.702 13.3066C16.6301 13.9265 17.4324 15.1559 18.5792 15.9828C20.4059 17.2989 24.2801 17.0582 27.4598 16.9262C30.6395 16.7942 35.1736 16.9922 40.3835 21.2705C45.5935 25.5488 48.0561 24.5653 49.1098 23.6529C50.3989 22.5374 52.642 18.9191 54.3849 20.4915C56.8169 22.6875 51.5644 27.358 46.8959 27.226C42.2275 27.094 37.6096 22.5853 37.6096 22.5853C37.6096 22.5853 41.2563 32.9498 41.5263 35.1226C41.7964 37.2941 41.1206 37.3601 40.1733 36.4387C39.226 35.5173 33.5491 28.5097 33.5491 28.5097C33.5491 28.5097 31.2408 35.1433 30.7725 35.9365C30.1126 37.0559 29.3064 36.9006 29.2332 36.2329C29.1215 35.2131 29.8612 29.9578 29.9623 28.3117C29.353 28.3117 21.1429 28.1474 18.9331 27.7527C19.0342 32.788 18.0204 37.2915 16.7512 36.5267C16.0328 36.0931 14.8474 27.5559 14.8474 27.5559C14.8474 27.5559 13.2336 36.8217 11.947 36.7557C10.6605 36.6897 10.3399 30.0238 9.7984 27.7203C9.25692 25.4168 7.29455 20.7438 5.46788 16.5975C4.39688 14.1685 4.14942 11.8935 4.21594 10.0442C2.91479 9.81901 -0.159817 9.24184 0.00648499 8.80832Z" fill="black"/>
</svg>
