<svg width="51" height="38" viewBox="0 0 51 38" fill="none" xmlns="http://www.w3.org/2000/svg">
<path d="M44.2877 15.147C44.112 14.9112 43.9077 14.6673 43.6803 14.4207C44.0317 14.4725 44.4293 14.4888 44.8828 14.4548C48.1036 14.2149 50.1437 11.1464 48.6865 8.98668C47.2307 6.82698 44.9278 6.35007 42.7692 7.80668C40.9103 9.06026 41.0683 11.6042 41.1486 12.2882C37.2319 9.65844 28.3662 7.20442 18.2898 10.3397C21.0694 8.5125 30.123 3.23928 29.0839 2.34406C28.0462 1.44884 15.5212 9.78107 15.5212 9.78107C14.9138 9.82604 14.9301 9.65163 13.7903 9.39001C16.2743 7.78761 20.9128 4.87575 22.1943 3.87697C24.0314 2.44353 27.594 -0.319804 25.3483 0.0303818C23.9783 0.244308 14.1702 6.74659 11.1033 8.92946C10.3911 8.8804 9.63659 8.89812 8.8508 9.03574C7.01637 9.35867 5.52514 9.97592 4.59908 10.6259C3.99305 9.83422 2.88314 10.2198 2.76329 10.8957C2.70065 11.2472 3.00434 11.7405 3.57224 11.8849C3.56679 11.9312 3.5627 11.9776 3.56679 12.0212C3.63897 12.9886 4.20005 16.1866 10.3202 15.7315C8.30742 17.447 5.73623 20.5987 2.71563 25.7452C0.809026 28.9936 -0.979094 32.8184 0.617004 33.3048C2.18723 33.7845 8.88893 21.6111 10.3829 22.2229C11.6399 22.7366 7.79536 28.1243 6.82571 31.2746C6.52474 32.2515 5.34129 35.8719 6.00996 36.1445C7.79536 36.8721 11.3961 27.0955 17.8731 23.1603C21.3731 21.0333 26.2621 20.6818 30.2265 21.2336C32.1658 21.5034 34.3924 22.0498 35.9286 23.3457C38.5924 25.5926 40.0496 28.7211 41.2902 31.9027C41.9167 33.5092 42.4533 35.1975 43.2459 36.7331C44.0834 38.3519 45.1906 38.5808 45.2247 36.4688C45.2832 32.9001 43.8383 26.5259 45.0776 25.7861C46.3182 25.0462 48.0628 32.4627 48.3256 33.4493C48.711 34.8963 49.806 37.0996 50.7484 36.7059C51.6908 36.3093 50.0824 22.9178 44.2877 15.147Z" fill="black"/>
</svg>
