<svg width="16" height="28" viewBox="0 0 16 28" fill="none" xmlns="http://www.w3.org/2000/svg">
<path d="M8 27.0769C3.56923 27.0769 0 23.5077 0 19.0769V6.15385C0 2.70769 2.70769 0 6.15385 0C9.6 0 12.3077 2.70769 12.3077 6.15385V16.6154C12.3077 18.9538 10.3385 20.9231 8 20.9231C5.66154 20.9231 3.69231 18.9538 3.69231 16.6154V7.38462C3.69231 6.64615 4.18462 6.15385 4.92308 6.15385C5.66154 6.15385 6.15385 6.64615 6.15385 7.38462V16.6154C6.15385 17.6 7.01538 18.4615 8 18.4615C8.98462 18.4615 9.84615 17.6 9.84615 16.6154V6.15385C9.84615 4.06154 8.24615 2.46154 6.15385 2.46154C4.06154 2.46154 2.46154 4.06154 2.46154 6.15385V19.0769C2.46154 22.1538 4.92308 24.6154 8 24.6154C11.0769 24.6154 13.5385 22.1538 13.5385 19.0769V7.38462C13.5385 6.64615 14.0308 6.15385 14.7692 6.15385C15.5077 6.15385 16 6.64615 16 7.38462V19.0769C16 23.3846 12.4308 27.0769 8 27.0769Z" fill="#F16331"/>
</svg>
