<?xml version="1.0" encoding="utf-8"?>
<!-- Generator: Adobe Illustrator 23.0.1, SVG Export Plug-In . SVG Version: 6.00 Build 0)  -->
<svg version="1.1" id="Слой_1" xmlns="http://www.w3.org/2000/svg" xmlns:xlink="http://www.w3.org/1999/xlink" x="0px" y="0px"
	 viewBox="0 0 1920 1080" style="enable-background:new 0 0 1920 1080;" xml:space="preserve">
<path d="M1141.7,478.78c0,0,3.71-3.69,3.08-8.31c-0.73-5.37-6.75-8.38-13.48-3.42c-9.02,6.65,2.97,13.04,2.97,13.04
	s-46.63,4.66-59.07,3.11c1.19-15.49-1.29-31.43-19.31-38.03l3.77-34.83c0,0,19.24,19.24,25.45,15.93c6.22-3.3-15.74-36.33-30.89-34
	c-13.4,2.06-11.76,36.9-12.01,50.06c-2.32-0.2-4.78-0.32-7.42-0.32c-0.58,0-1.16,0.02-1.73,0.06c-1.16-10.63-8.2-67.61-25.47-61.26
	c-18.74,6.88-3.79,46.48,14.65,64.41c-27.42,14.64-36.41,74.51-36.41,74.51s-110.37,10.57-154.87,31.92l-5.76,2.42
	c-25.75-21.2-65.61-102.23-83.79-90.87c-33.67,21.04,73.72,95.59,73.72,95.59l0,0c-2.56,1.46-4.75,2.95-6.49,4.47
	c-22.54,19.62-33.42,42.16-38.08,53.24c-4.66,11.08-33.22,70.53-21.57,70.53c11.66,0,51.29-67.03,56.54-68.78
	c5.25-1.75,22.73-1.17,22.73-1.17s-6.41,64.7,0,65.28c6.41,0.58,22.73-63.54,22.73-63.54s11.66-0.58,46.63-1.17
	s111.91-15.74,111.91-15.74s-13.99,85.1-6.41,85.1c6.69,0,33.82-71.32,40.09-88.03l29.17,13.23c0,0-17.38,38.08-10.97,41.57
	c6.41,3.5,29.14-38.47,25.65-50.13c-3.5-11.66-29.73-33.22-29.73-33.22c-1.18-1.04-2.27-2-3.26-2.89
	c5.12-14.62,10.83-30.32,13.17-34.41c4.66-8.16,12.44-6.22,41.77-11.08c29.34-4.86,40.52-21.91,39.54-35.99
	C1148.18,480.83,1141.7,478.78,1141.7,478.78z"/>
</svg>
